#N canvas -1874 130 1304 609 12;
#X obj 87 122 oscparse;
#X obj 258 211 print;
#X obj 87 99 netreceive -u -b;
#X msg 90 73 listen 5000;
#X obj 401 428 dac~;
#N canvas -1214 256 929 444 synth_left 0;
#X obj 133 299 outlet~;
#X obj 133 258 osc~;
#X obj 133 235 +~;
#X obj 148 214 *~;
#X obj 148 192 osc~;
#X obj 246 76 inlet~;
#X obj 56 66 inlet;
#X floatatom 57 92 5 0 0 0 - - - 0;
#X obj 146 117 *~ \$1;
#X obj 326 80 inlet~;
#X obj 188 212 *~;
#X obj 133 279 *~ 1;
#X connect 1 0 11 0;
#X connect 2 0 1 0;
#X connect 3 0 2 1;
#X connect 4 0 3 0;
#X connect 5 0 10 1;
#X connect 6 0 7 0;
#X connect 7 0 2 0;
#X connect 7 0 8 0;
#X connect 8 0 4 0;
#X connect 8 0 10 0;
#X connect 10 0 3 1;
#X connect 11 0 0 0;
#X restore 429 277 pd synth_left 1 0.1;
#X obj 403 353 *~ 0.7;
#X obj 485 355 *~ 0.7;
#N canvas -1895 337 929 444 synth_right 0;
#X obj 133 299 outlet~;
#X obj 133 258 osc~;
#X obj 133 235 +~;
#X obj 148 214 *~;
#X obj 148 192 osc~;
#X obj 133 279 *~;
#X obj 247 245 inlet~;
#X obj 56 66 inlet;
#X floatatom 56 87 5 0 0 0 - - - 0;
#X obj 146 117 *~ \$1;
#X obj 188 212 *~ \$2;
#X connect 1 0 5 0;
#X connect 2 0 1 0;
#X connect 3 0 2 1;
#X connect 4 0 3 0;
#X connect 5 0 0 0;
#X connect 6 0 5 1;
#X connect 7 0 8 0;
#X connect 8 0 2 0;
#X connect 8 0 9 0;
#X connect 9 0 4 0;
#X connect 9 0 10 0;
#X connect 10 0 3 1;
#X restore 602 277 pd synth_right 1 0.1;
#X obj 376 109 route leap;
#X obj 376 133 route left right;
#X obj 235 165 list trim;
#X obj 557 177 unpack f f f;
#X obj 364 178 unpack f f f;
#X obj 360 215 / 10;
#X obj 413 213 / 10;
#X obj 568 212 / 10;
#X obj 610 213 / 10;
#X obj 797 83 vsl 19 162 0 127 0 0 empty empty empty 0 -9 0 12 #fcfcfc #000000 #000000 0 1;
#X obj 886 106 vsl 19 162 0 127 0 0 empty empty empty 0 -9 0 12 #fcfcfc #000000 #000000 0 1;
#X obj 214 281 vsl 19 162 -30 30 0 0 empty empty empty 0 -9 0 12 #fcfcfc #000000 #000000 0 1;
#X obj 303 304 vsl 19 162 0 80 0 0 empty empty empty 0 -9 0 12 #fcfcfc #000000 #000000 0 1;
#X obj 419 249 mtof;
#X obj 321 194 * -1;
#X connect 0 0 11 0;
#X connect 2 0 0 0;
#X connect 3 0 2 0;
#X connect 5 0 6 0;
#X connect 6 0 4 0;
#X connect 7 0 4 1;
#X connect 8 0 7 0;
#X connect 9 0 10 0;
#X connect 9 0 1 0;
#X connect 10 0 13 0;
#X connect 10 1 12 0;
#X connect 11 0 9 0;
#X connect 12 0 16 0;
#X connect 12 1 17 0;
#X connect 13 0 23 0;
#X connect 13 1 15 0;
#X connect 14 0 20 0;
#X connect 14 0 22 0;
#X connect 15 0 21 0;
#X connect 16 0 8 0;
#X connect 16 0 18 0;
#X connect 17 0 8 1;
#X connect 17 0 19 0;
#X connect 21 0 5 1;
#X connect 22 0 5 0;
#X connect 23 0 14 0;
